<svg width="149" height="72" viewBox="0 0 149 72" fill="none" xmlns="http://www.w3.org/2000/svg">
<g filter="url(#filter0_d_12_32835)">
<rect x="6.5" y="7" width="126" height="50" rx="8" fill="url(#paint0_linear_12_32835)" shape-rendering="crispEdges"/>
<rect x="7" y="7.5" width="125" height="49" rx="7.5" stroke="url(#paint1_linear_12_32835)" shape-rendering="crispEdges"/>
<path d="M33 39V24.9H38.68C41.4 24.9 43.2 26.6 43.2 29.08C43.2 31.16 42 32.7 40.2 33.18L43.42 38.46V39H41.02L37.7 33.42L35.4 33.4V39H33ZM35.4 31.32H38.4C39.78 31.32 40.74 30.52 40.74 29.16C40.74 27.82 39.82 27 38.4 27H35.42L35.4 31.32ZM48.2795 39.24C46.2995 39.24 44.9795 38.04 44.9795 36.26C44.9795 34.54 46.1795 33.72 48.0195 33.4L51.2795 32.84V32.2C51.2795 31.24 50.5595 30.62 49.4395 30.62C48.2795 30.62 47.5795 31.2 47.4995 32.1H45.1995C45.2995 29.98 46.9395 28.72 49.4395 28.72C51.9795 28.72 53.5395 30.12 53.5395 32.2V37.34L54.0195 39H51.6795L51.3195 37.6V37.36C51.0395 38.2 50.1395 39.24 48.2795 39.24ZM47.3195 36.08C47.3195 36.8 47.7795 37.42 48.9595 37.42C50.2195 37.42 51.2795 36.58 51.2795 35.98V34.16L50.5395 34.54L48.7995 34.84C47.9395 35 47.3195 35.36 47.3195 36.08ZM56.1041 39V30.7L55.8441 29H58.1641L58.3641 30.1V30.88C58.7041 29.72 59.8641 28.76 61.6041 28.76C63.7041 28.76 65.0441 30.2 65.0441 32.42V39H62.7241V32.94C62.7241 31.76 62.1441 30.74 60.7041 30.74C59.2641 30.74 58.4241 31.82 58.4241 32V39H56.1041ZM71.4442 39.16C69.1042 39.16 66.9442 37.32 66.9442 34C66.9442 30.62 69.1442 28.86 71.3842 28.86C72.9642 28.86 74.1642 29.76 74.6242 30.72V25.5H76.9242V37.28L77.1842 39H74.8242L74.6442 37.8V37.42C74.2442 38.32 73.0242 39.16 71.4442 39.16ZM69.2642 33.98C69.2642 36.06 70.6042 37.18 72.1442 37.18C73.6442 37.18 74.6442 36.1 74.6442 35.74V32.38C74.6442 32 73.6842 30.84 72.1642 30.84C70.6042 30.84 69.2642 31.9 69.2642 33.98ZM84.3136 39.34C81.2736 39.34 79.0736 37.14 79.0736 34C79.0736 30.86 81.2736 28.7 84.3136 28.7C87.3536 28.7 89.5336 30.86 89.5336 34C89.5336 37.14 87.3536 39.34 84.3136 39.34ZM81.4136 34.02C81.4136 36 82.5736 37.26 84.3136 37.26C86.0536 37.26 87.2136 35.98 87.2136 34C87.2136 32.04 86.0536 30.76 84.3136 30.76C82.5736 30.76 81.4136 32.04 81.4136 34.02ZM91.5347 39V30.78L91.1947 29H93.4947L93.7947 30.48V30.72C94.1347 29.66 95.2347 28.76 96.7947 28.76C98.2347 28.76 99.0947 29.44 99.6147 30.66C100.215 29.32 101.315 28.76 102.695 28.76C104.415 28.76 106.015 29.94 106.015 32.32V39H103.775V32.74C103.775 31.72 103.235 30.76 101.995 30.76C100.795 30.76 100.015 31.58 100.015 31.84V39H97.7147V32.76C97.7147 31.7 97.2147 30.76 95.9747 30.76C94.6947 30.76 93.8547 31.8 93.8547 31.9V39H91.5347Z" fill="white"/>
</g>
<defs>
<filter id="filter0_d_12_32835" x="0.6" y="0.1" width="147.8" height="71.8" filterUnits="userSpaceOnUse" color-interpolation-filters="sRGB">
<feFlood flood-opacity="0" result="BackgroundImageFix"/>
<feColorMatrix in="SourceAlpha" type="matrix" values="0 0 0 0 0 0 0 0 0 0 0 0 0 0 0 0 0 0 127 0" result="hardAlpha"/>
<feOffset dx="5" dy="4"/>
<feGaussianBlur stdDeviation="5.45"/>
<feComposite in2="hardAlpha" operator="out"/>
<feColorMatrix type="matrix" values="0 0 0 0 0 0 0 0 0 0 0 0 0 0 0 0 0 0 0.1 0"/>
<feBlend mode="normal" in2="BackgroundImageFix" result="effect1_dropShadow_12_32835"/>
<feBlend mode="normal" in="SourceGraphic" in2="effect1_dropShadow_12_32835" result="shape"/>
</filter>
<linearGradient id="paint0_linear_12_32835" x1="4.51887" y1="40.5" x2="133.856" y2="23.0476" gradientUnits="userSpaceOnUse">
<stop stop-color="#101828"/>
<stop offset="1" stop-color="#233250"/>
</linearGradient>
<linearGradient id="paint1_linear_12_32835" x1="2.53774" y1="42" x2="132.679" y2="35.7115" gradientUnits="userSpaceOnUse">
<stop stop-color="#243961"/>
<stop offset="1" stop-color="#101828"/>
</linearGradient>
</defs>
</svg>
