<svg width="499" height="72" viewBox="0 0 499 72" fill="none" xmlns="http://www.w3.org/2000/svg">
<g filter="url(#filter0_d_12_32842)">
<rect x="6.5" y="7" width="126" height="50" rx="8" fill="url(#paint0_linear_12_32842)" shape-rendering="crispEdges"/>
<rect x="7" y="7.5" width="125" height="49" rx="7.5" stroke="url(#paint1_linear_12_32842)" shape-rendering="crispEdges"/>
<path d="M33 39V24.9H38.68C41.4 24.9 43.2 26.6 43.2 29.08C43.2 31.16 42 32.7 40.2 33.18L43.42 38.46V39H41.02L37.7 33.42L35.4 33.4V39H33ZM35.4 31.32H38.4C39.78 31.32 40.74 30.52 40.74 29.16C40.74 27.82 39.82 27 38.4 27H35.42L35.4 31.32ZM48.2795 39.24C46.2995 39.24 44.9795 38.04 44.9795 36.26C44.9795 34.54 46.1795 33.72 48.0195 33.4L51.2795 32.84V32.2C51.2795 31.24 50.5595 30.62 49.4395 30.62C48.2795 30.62 47.5795 31.2 47.4995 32.1H45.1995C45.2995 29.98 46.9395 28.72 49.4395 28.72C51.9795 28.72 53.5395 30.12 53.5395 32.2V37.34L54.0195 39H51.6795L51.3195 37.6V37.36C51.0395 38.2 50.1395 39.24 48.2795 39.24ZM47.3195 36.08C47.3195 36.8 47.7795 37.42 48.9595 37.42C50.2195 37.42 51.2795 36.58 51.2795 35.98V34.16L50.5395 34.54L48.7995 34.84C47.9395 35 47.3195 35.36 47.3195 36.08ZM56.1041 39V30.7L55.8441 29H58.1641L58.3641 30.1V30.88C58.7041 29.72 59.8641 28.76 61.6041 28.76C63.7041 28.76 65.0441 30.2 65.0441 32.42V39H62.7241V32.94C62.7241 31.76 62.1441 30.74 60.7041 30.74C59.2641 30.74 58.4241 31.82 58.4241 32V39H56.1041ZM71.4442 39.16C69.1042 39.16 66.9442 37.32 66.9442 34C66.9442 30.62 69.1442 28.86 71.3842 28.86C72.9642 28.86 74.1642 29.76 74.6242 30.72V25.5H76.9242V37.28L77.1842 39H74.8242L74.6442 37.8V37.42C74.2442 38.32 73.0242 39.16 71.4442 39.16ZM69.2642 33.98C69.2642 36.06 70.6042 37.18 72.1442 37.18C73.6442 37.18 74.6442 36.1 74.6442 35.74V32.38C74.6442 32 73.6842 30.84 72.1642 30.84C70.6042 30.84 69.2642 31.9 69.2642 33.98ZM84.3136 39.34C81.2736 39.34 79.0736 37.14 79.0736 34C79.0736 30.86 81.2736 28.7 84.3136 28.7C87.3536 28.7 89.5336 30.86 89.5336 34C89.5336 37.14 87.3536 39.34 84.3136 39.34ZM81.4136 34.02C81.4136 36 82.5736 37.26 84.3136 37.26C86.0536 37.26 87.2136 35.98 87.2136 34C87.2136 32.04 86.0536 30.76 84.3136 30.76C82.5736 30.76 81.4136 32.04 81.4136 34.02ZM91.5347 39V30.78L91.1947 29H93.4947L93.7947 30.48V30.72C94.1347 29.66 95.2347 28.76 96.7947 28.76C98.2347 28.76 99.0947 29.44 99.6147 30.66C100.215 29.32 101.315 28.76 102.695 28.76C104.415 28.76 106.015 29.94 106.015 32.32V39H103.775V32.74C103.775 31.72 103.235 30.76 101.995 30.76C100.795 30.76 100.015 31.58 100.015 31.84V39H97.7147V32.76C97.7147 31.7 97.2147 30.76 95.9747 30.76C94.6947 30.76 93.8547 31.8 93.8547 31.9V39H91.5347Z" fill="white"/>
</g>
<path d="M170.4 39.28C166.38 39.28 163.38 36.5 163.38 31.98C163.38 27.42 166.46 24.62 170.42 24.62C174.04 24.62 176.4 26.84 176.72 29.7H174.2C173.86 27.9 172.4 26.84 170.42 26.84C167.68 26.84 165.9 28.8 165.9 31.9C165.9 35.04 167.68 37.02 170.42 37.02C172.36 37.02 173.82 35.94 174.2 34.12H176.74C176.38 36.96 173.96 39.28 170.4 39.28ZM181.799 39.24C179.819 39.24 178.499 38.04 178.499 36.26C178.499 34.54 179.699 33.72 181.539 33.4L184.799 32.84V32.2C184.799 31.24 184.079 30.62 182.959 30.62C181.799 30.62 181.099 31.2 181.019 32.1H178.719C178.819 29.98 180.459 28.72 182.959 28.72C185.499 28.72 187.059 30.12 187.059 32.2V37.34L187.539 39H185.199L184.839 37.6V37.36C184.559 38.2 183.659 39.24 181.799 39.24ZM180.839 36.08C180.839 36.8 181.299 37.42 182.479 37.42C183.739 37.42 184.799 36.58 184.799 35.98V34.16L184.059 34.54L182.319 34.84C181.459 35 180.839 35.36 180.839 36.08ZM190.265 26.78H192.585V29H195.045V30.96H192.585V36.32C192.585 36.76 192.725 36.96 193.245 36.96H195.045V39H192.885C191.185 39 190.265 38.28 190.265 36.52V30.96H188.665V29H190.265V26.78Z" fill="black" fill-opacity="0.7"/>
<path d="M248.14 39V24.9H252.96C257.2 24.9 259.88 27.52 259.88 31.92C259.88 36.2 257.32 39 253 39H248.14ZM250.54 36.78H253.04C255.8 36.78 257.4 34.88 257.4 31.92C257.4 28.88 255.74 27.12 253.08 27.12H250.54V36.78ZM266.54 39.34C263.5 39.34 261.3 37.14 261.3 34C261.3 30.86 263.5 28.7 266.54 28.7C269.58 28.7 271.76 30.86 271.76 34C271.76 37.14 269.58 39.34 266.54 39.34ZM263.64 34.02C263.64 36 264.8 37.26 266.54 37.26C268.28 37.26 269.44 35.98 269.44 34C269.44 32.04 268.28 30.76 266.54 30.76C264.8 30.76 263.64 32.04 263.64 34.02ZM277.841 42.82C275.181 42.8 273.381 41.46 273.201 39.3H275.621C275.761 40.36 276.621 40.94 277.901 40.94C279.621 40.94 280.521 39.92 280.521 38.28V37.02C280.121 37.86 279.161 38.82 277.481 38.82C275.281 38.82 273.061 37.2 273.061 33.86C273.061 30.54 275.261 28.84 277.481 28.84C279.161 28.84 280.161 29.8 280.541 30.64V30.2L280.681 29H283.061L282.821 30.72V38.24C282.821 41.06 280.921 42.84 277.841 42.82ZM275.361 33.86C275.361 35.88 276.621 36.86 278.141 36.86C279.721 36.86 280.541 35.74 280.541 35.44V32.2C280.541 31.88 279.681 30.82 278.121 30.82C276.621 30.82 275.361 31.84 275.361 33.86ZM288.564 39.24C286.184 39.24 284.344 38.04 284.204 35.8H286.424C286.484 36.84 287.364 37.44 288.584 37.44C289.724 37.44 290.384 36.92 290.384 36.18C290.384 35.6 289.944 35.34 289.264 35.18L287.044 34.7C285.484 34.36 284.644 33.32 284.644 31.86C284.644 30.02 286.224 28.76 288.524 28.76C290.704 28.76 292.404 29.82 292.544 32H290.324C290.224 31.04 289.484 30.54 288.544 30.54C287.544 30.54 286.824 31 286.824 31.72C286.824 32.4 287.364 32.66 287.984 32.8L289.904 33.2C291.444 33.52 292.584 34.36 292.584 35.96C292.584 37.9 290.964 39.24 288.564 39.24Z" fill="black" fill-opacity="0.7"/>
<path d="M344.92 39V24.9H353.92V27.16H347.32V30.62H353V32.84H347.32V39H344.92ZM355.957 39V29H358.277V39H355.957ZM355.637 26.26C355.637 25.44 356.297 24.8 357.137 24.8C357.957 24.8 358.617 25.44 358.617 26.26C358.617 27.12 357.957 27.8 357.137 27.8C356.297 27.8 355.637 27.12 355.637 26.26ZM364.568 39.24C362.188 39.24 360.348 38.04 360.208 35.8H362.428C362.488 36.84 363.368 37.44 364.588 37.44C365.728 37.44 366.388 36.92 366.388 36.18C366.388 35.6 365.948 35.34 365.268 35.18L363.048 34.7C361.488 34.36 360.648 33.32 360.648 31.86C360.648 30.02 362.228 28.76 364.528 28.76C366.708 28.76 368.408 29.82 368.548 32H366.328C366.228 31.04 365.488 30.54 364.548 30.54C363.548 30.54 362.828 31 362.828 31.72C362.828 32.4 363.368 32.66 363.988 32.8L365.908 33.2C367.448 33.52 368.588 34.36 368.588 35.96C368.588 37.9 366.968 39.24 364.568 39.24ZM370.425 25.5H372.665V30.9C373.065 29.72 374.125 28.76 375.865 28.76C377.965 28.76 379.345 30.22 379.345 32.42V39H377.045V33C377.045 31.96 376.505 30.8 375.105 30.8C373.625 30.8 372.725 31.94 372.725 32.04V39H370.425V25.5Z" fill="black" fill-opacity="0.7"/>
<path d="M433.06 39V24.9H438.32C440.84 24.92 442.56 26.38 442.56 28.38C442.56 29.88 441.88 31.06 440.44 31.54C442.08 31.88 443.1 33.22 443.1 34.98C443.1 37.2 441.36 39 438.7 39H433.06ZM435.44 36.98H438.32C439.8 36.98 440.68 36.04 440.68 34.82C440.68 33.54 439.74 32.74 438.44 32.74H435.44V36.98ZM435.44 30.74H438.04C439.32 30.74 440.18 29.94 440.18 28.8C440.18 27.68 439.3 26.94 438 26.94H435.44V30.74ZM445.422 39V29H447.742V39H445.422ZM445.102 26.26C445.102 25.44 445.762 24.8 446.602 24.8C447.422 24.8 448.082 25.44 448.082 26.26C448.082 27.12 447.422 27.8 446.602 27.8C445.762 27.8 445.102 27.12 445.102 26.26ZM450.813 39V30.82L450.493 29H452.893L453.093 30.22V31.26C453.353 29.92 454.373 29 455.653 29H456.413V31.34H455.133C453.793 31.34 453.133 32.26 453.133 32.64V39H450.813ZM461.991 39.16C459.651 39.16 457.491 37.32 457.491 34C457.491 30.62 459.691 28.86 461.931 28.86C463.511 28.86 464.711 29.76 465.171 30.72V25.5H467.471V37.28L467.731 39H465.371L465.191 37.8V37.42C464.791 38.32 463.571 39.16 461.991 39.16ZM459.811 33.98C459.811 36.06 461.151 37.18 462.691 37.18C464.191 37.18 465.191 36.1 465.191 35.74V32.38C465.191 32 464.231 30.84 462.711 30.84C461.151 30.84 459.811 31.9 459.811 33.98ZM473.7 39.24C471.32 39.24 469.48 38.04 469.34 35.8H471.56C471.62 36.84 472.5 37.44 473.72 37.44C474.86 37.44 475.52 36.92 475.52 36.18C475.52 35.6 475.08 35.34 474.4 35.18L472.18 34.7C470.62 34.36 469.78 33.32 469.78 31.86C469.78 30.02 471.36 28.76 473.66 28.76C475.84 28.76 477.54 29.82 477.68 32H475.46C475.36 31.04 474.62 30.54 473.68 30.54C472.68 30.54 471.96 31 471.96 31.72C471.96 32.4 472.5 32.66 473.12 32.8L475.04 33.2C476.58 33.52 477.72 34.36 477.72 35.96C477.72 37.9 476.1 39.24 473.7 39.24Z" fill="black" fill-opacity="0.7"/>
<defs>
<filter id="filter0_d_12_32842" x="0.6" y="0.1" width="147.8" height="71.8" filterUnits="userSpaceOnUse" color-interpolation-filters="sRGB">
<feFlood flood-opacity="0" result="BackgroundImageFix"/>
<feColorMatrix in="SourceAlpha" type="matrix" values="0 0 0 0 0 0 0 0 0 0 0 0 0 0 0 0 0 0 127 0" result="hardAlpha"/>
<feOffset dx="5" dy="4"/>
<feGaussianBlur stdDeviation="5.45"/>
<feComposite in2="hardAlpha" operator="out"/>
<feColorMatrix type="matrix" values="0 0 0 0 0 0 0 0 0 0 0 0 0 0 0 0 0 0 0.1 0"/>
<feBlend mode="normal" in2="BackgroundImageFix" result="effect1_dropShadow_12_32842"/>
<feBlend mode="normal" in="SourceGraphic" in2="effect1_dropShadow_12_32842" result="shape"/>
</filter>
<linearGradient id="paint0_linear_12_32842" x1="4.51887" y1="40.5" x2="133.856" y2="23.0476" gradientUnits="userSpaceOnUse">
<stop stop-color="#101828"/>
<stop offset="1" stop-color="#233250"/>
</linearGradient>
<linearGradient id="paint1_linear_12_32842" x1="2.53774" y1="42" x2="132.679" y2="35.7115" gradientUnits="userSpaceOnUse">
<stop stop-color="#243961"/>
<stop offset="1" stop-color="#101828"/>
</linearGradient>
</defs>
</svg>
