<svg width="90" height="25" viewBox="0 0 90 25" fill="none" xmlns="http://www.w3.org/2000/svg">
<path d="M16 14.5H15.21L14.93 14.23C15.9439 13.054 16.5011 11.5527 16.5 10C16.5 8.71442 16.1188 7.45772 15.4046 6.3888C14.6903 5.31988 13.6752 4.48676 12.4874 3.99479C11.2997 3.50282 9.99279 3.37409 8.73192 3.6249C7.47104 3.8757 6.31285 4.49477 5.40381 5.40381C4.49477 6.31285 3.8757 7.47104 3.6249 8.73192C3.37409 9.99279 3.50282 11.2997 3.99479 12.4874C4.48676 13.6752 5.31988 14.6903 6.3888 15.4046C7.45772 16.1188 8.71442 16.5 10 16.5C11.61 16.5 13.09 15.91 14.23 14.93L14.5 15.21V16L19.5 20.99L20.99 19.5L16 14.5ZM10 14.5C7.51 14.5 5.5 12.49 5.5 10C5.5 7.51 7.51 5.5 10 5.5C12.49 5.5 14.5 7.51 14.5 10C14.5 12.49 12.49 14.5 10 14.5Z" fill="#101828" fill-opacity="0.38"/>
<path d="M39.6 18.221C36.948 18.221 34.976 16.691 34.84 14.039H36.982C37.101 15.552 38.172 16.453 39.702 16.453C41.045 16.453 41.98 15.705 41.98 14.634C41.98 13.75 41.368 13.359 40.586 13.172L37.9 12.543C36.166 12.135 35.316 10.945 35.316 9.398C35.316 7.205 37.033 5.794 39.549 5.794C41.929 5.794 43.748 7.018 43.901 9.432L41.776 9.415C41.674 8.174 40.671 7.545 39.549 7.545C38.274 7.545 37.322 8.14 37.322 9.228C37.322 10.027 37.866 10.452 38.461 10.605L41.011 11.217C42.864 11.659 44.054 12.662 44.054 14.413C44.054 16.674 42.218 18.221 39.6 18.221ZM49.5024 18.255C47.0884 18.255 45.3034 16.572 45.3034 13.818C45.3034 10.996 47.0714 9.262 49.5194 9.262C51.8314 9.262 53.5994 10.86 53.5994 13.546C53.5994 13.903 53.5654 14.328 53.5654 14.396H47.2584C47.3094 15.773 48.1934 16.64 49.5194 16.64C50.5054 16.64 51.2194 16.113 51.4064 15.331H53.3444C53.1064 17.167 51.4064 18.255 49.5024 18.255ZM47.3094 12.951H51.6274C51.5594 11.71 50.7264 10.911 49.5024 10.911C48.2444 10.911 47.3944 11.71 47.3094 12.951ZM57.7108 18.204C56.0278 18.204 54.9058 17.184 54.9058 15.671C54.9058 14.209 55.9258 13.512 57.4898 13.24L60.2608 12.764V12.22C60.2608 11.404 59.6488 10.877 58.6968 10.877C57.7108 10.877 57.1158 11.37 57.0478 12.135H55.0928C55.1778 10.333 56.5718 9.262 58.6968 9.262C60.8558 9.262 62.1818 10.452 62.1818 12.22V16.589L62.5898 18H60.6008L60.2948 16.81V16.606C60.0568 17.32 59.2918 18.204 57.7108 18.204ZM56.8948 15.518C56.8948 16.13 57.2858 16.657 58.2888 16.657C59.3598 16.657 60.2608 15.943 60.2608 15.433V13.886L59.6318 14.209L58.1528 14.464C57.4218 14.6 56.8948 14.906 56.8948 15.518ZM64.4127 18V11.047L64.1407 9.5H66.1807L66.3507 10.537V11.421C66.5717 10.282 67.4387 9.5 68.5267 9.5H69.1727V11.489H68.0847C66.9457 11.489 66.3847 12.271 66.3847 12.594V18H64.4127ZM74.5435 18.255C71.9425 18.255 70.1235 16.419 70.1235 13.733C70.1235 11.064 71.9425 9.245 74.5435 9.245C76.6345 9.245 78.2835 10.537 78.4195 12.424H76.4815C76.3625 11.489 75.5975 10.894 74.5095 10.894C73.0475 10.894 72.1125 11.999 72.1125 13.75C72.1125 15.501 73.0305 16.606 74.5095 16.606C75.5975 16.606 76.3795 15.96 76.5155 14.923H78.4535C78.3005 16.912 76.6515 18.255 74.5435 18.255ZM80.0636 6.525H81.9676V11.115C82.3076 10.112 83.2086 9.296 84.6876 9.296C86.4726 9.296 87.6456 10.537 87.6456 12.407V18H85.6906V12.9C85.6906 12.016 85.2316 11.03 84.0416 11.03C82.7836 11.03 82.0186 11.999 82.0186 12.084V18H80.0636V6.525Z" fill="#101828" fill-opacity="0.38"/>
</svg>
