<svg width="28" height="25" viewBox="0 0 28 25" fill="none" xmlns="http://www.w3.org/2000/svg">
<g clip-path="url(#clip0_9_32594)">
<path d="M5.328 0.22998C5.988 0.22998 7.172 0.43398 7.172 2.05898C7.172 3.68398 6 4.30898 5.328 4.30898C4.656 4.30898 3.625 3.67098 3.625 2.05898C3.625 0.44598 4.758 0.22998 5.328 0.22998ZM1.703 2.26998C2.363 2.26998 3.547 2.47298 3.547 4.09798C3.547 5.72298 2.375 6.34798 1.703 6.34798C1.031 6.34798 0 5.71098 0 4.09798C0 2.48598 1.133 2.26998 1.703 2.26998ZM11.547 2.05898C11.547 0.43398 10.363 0.23098 9.703 0.23098C9.133 0.23098 8 0.44598 8 2.05898C8 3.67098 9.031 4.30898 9.703 4.30898C10.375 4.30898 11.547 3.68398 11.547 2.05898ZM13.25 2.26998C13.91 2.26998 15.094 2.47298 15.094 4.09798C15.094 5.72298 13.922 6.34798 13.25 6.34798C12.578 6.34798 11.547 5.71098 11.547 4.09798C11.547 2.48598 12.68 2.26998 13.25 2.26998ZM12.531 10.239C12.531 7.31698 10.641 4.78598 7.547 4.78598C4.453 4.78598 2.594 7.25398 2.594 10.239C2.594 12.723 5.555 12.723 7.54 12.723H7.547C9.75 12.723 12.531 12.645 12.531 10.239ZM13.703 14.317C14.363 14.317 15.547 14.52 15.547 16.145C15.547 17.77 14.375 18.395 13.703 18.395C13.031 18.395 12 17.757 12 16.145C12 14.532 13.133 14.317 13.703 14.317ZM19.172 14.106C19.172 12.481 17.988 12.278 17.328 12.278C16.758 12.278 15.625 12.493 15.625 14.106C15.625 15.718 16.656 16.356 17.328 16.356C18 16.356 19.172 15.731 19.172 14.106ZM21.703 12.278C22.363 12.278 23.547 12.481 23.547 14.106C23.547 15.731 22.375 16.356 21.703 16.356C21.031 16.356 20 15.718 20 14.106C20 12.493 21.133 12.278 21.703 12.278ZM27.094 16.145C27.094 14.52 25.91 14.317 25.25 14.317C24.68 14.317 23.547 14.532 23.547 16.145C23.547 17.757 24.578 18.395 25.25 18.395C25.922 18.395 27.094 17.77 27.094 16.145ZM19.547 16.833C22.641 16.833 24.531 19.363 24.531 22.286C24.531 24.692 21.751 24.77 19.547 24.77H19.539C17.555 24.77 14.594 24.77 14.594 22.286C14.594 19.301 16.454 16.833 19.547 16.833Z" fill="#101828"/>
</g>
<defs>
<clipPath id="clip0_9_32594">
<rect width="28" height="24.54" fill="white" transform="translate(0 0.22998)"/>
</clipPath>
</defs>
</svg>
